<?xml version="1.0" encoding="UTF-8" standalone="no"?>
<!-- Created with Inkscape (http://www.inkscape.org/) -->

<svg
   xmlns:dc="http://purl.org/dc/elements/1.1/"
   xmlns:cc="http://creativecommons.org/ns#"
   xmlns:rdf="http://www.w3.org/1999/02/22-rdf-syntax-ns#"
   xmlns:svg="http://www.w3.org/2000/svg"
   xmlns="http://www.w3.org/2000/svg"
   xmlns:xlink="http://www.w3.org/1999/xlink"
   xmlns:sodipodi="http://sodipodi.sourceforge.net/DTD/sodipodi-0.dtd"
   xmlns:inkscape="http://www.inkscape.org/namespaces/inkscape"
   width="14"
   height="14"
   viewBox="0 0 14 14"
   version="1.1"
   id="svg8"
   inkscape:version="0.92.1 r15371"
   sodipodi:docname="titlebutton-minimize-active.svg">
  <defs
     id="defs2">
    <linearGradient
       inkscape:collect="always"
       id="linearGradient4796">
      <stop
         style="stop-color:#ffffff;stop-opacity:0.6"
         offset="0"
         id="stop4790" />
      <stop
         id="stop4792"
         offset="0.5"
         style="stop-color:#ffffff;stop-opacity:0.8" />
      <stop
         style="stop-color:#ffffff;stop-opacity:1"
         offset="1"
         id="stop4794" />
    </linearGradient>
    <linearGradient
       id="linearGradient4751"
       inkscape:collect="always">
      <stop
         id="stop4747"
         offset="0"
         style="stop-color:#fde88d;stop-opacity:1" />
      <stop
         id="stop4749"
         offset="1"
         style="stop-color:#fde88d;stop-opacity:0" />
    </linearGradient>
    <linearGradient
       id="linearGradient4579"
       inkscape:collect="always">
      <stop
         id="stop4564"
         offset="0"
         style="stop-color:#000000;stop-opacity:0" />
      <stop
         style="stop-color:#000000;stop-opacity:0"
         offset="0.66666716"
         id="stop4569" />
      <stop
         id="stop4566"
         offset="1"
         style="stop-color:#000000;stop-opacity:1" />
    </linearGradient>
    <linearGradient
       id="linearGradient4533"
       inkscape:collect="always">
      <stop
         id="stop4529"
         offset="0"
         style="stop-color:#ffffff;stop-opacity:1" />
      <stop
         id="stop4531"
         offset="1"
         style="stop-color:#ffffff;stop-opacity:0" />
    </linearGradient>
    <linearGradient
       id="linearGradient4593"
       inkscape:collect="always">
      <stop
         id="stop4589"
         offset="0"
         style="stop-color:#dfdfdf;stop-opacity:0" />
      <stop
         style="stop-color:#e7e7e7;stop-opacity:0.27058825"
         offset="0.80000001"
         id="stop4508" />
      <stop
         id="stop4591"
         offset="1"
         style="stop-color:#eeeeee;stop-opacity:1" />
    </linearGradient>
    <linearGradient
       inkscape:collect="always"
       id="linearGradient4530">
      <stop
         style="stop-color:#ffffff;stop-opacity:0.94818652"
         offset="0"
         id="stop4526" />
      <stop
         style="stop-color:#c0c0c0;stop-opacity:0"
         offset="1"
         id="stop4528" />
    </linearGradient>
    <radialGradient
       inkscape:collect="always"
       xlink:href="#linearGradient4593"
       id="radialGradient4520"
       gradientUnits="userSpaceOnUse"
       gradientTransform="translate(-60,293.29583)"
       cx="7"
       cy="7"
       fx="7"
       fy="7"
       r="5" />
    <mask
       maskUnits="userSpaceOnUse"
       id="mask4516">
      <path
         id="path4518"
         d="m -53,295.29583 c -2.761424,0 -5,2.23858 -5,5 0,2.76142 2.238576,5 5,5 2.761424,0 5,-2.23858 5,-5 0,-2.76142 -2.238576,-5 -5,-5 z"
         style="opacity:1;fill:url(#radialGradient4520);fill-opacity:1;stroke:none;stroke-width:1.81374979;stroke-linecap:butt;stroke-linejoin:miter;stroke-miterlimit:4;stroke-dasharray:none;stroke-opacity:1"
         inkscape:connector-curvature="0"
         sodipodi:nodetypes="sssss" />
    </mask>
    <clipPath
       clipPathUnits="userSpaceOnUse"
       id="clipPath4683">
      <path
         inkscape:connector-curvature="0"
         id="path4685"
         d="m 4.9471629,297.29648 a 0.96102625,0.9610267 0 0 0 -0.6659435,0.28122 0.96102625,0.9610267 0 0 0 0,1.35923 l 1.3592271,1.35923 -1.3592271,1.35923 a 0.96102625,0.9610267 0 0 0 0,1.35922 0.96102625,0.9610267 0 0 0 1.3592271,0 l 1.3592272,-1.35922 1.3592272,1.35922 a 0.96102625,0.9610267 0 0 0 1.3592271,0 0.96102625,0.9610267 0 0 0 0,-1.35922 l -1.3592271,-1.35923 1.3592271,-1.35923 a 0.96102625,0.9610267 0 0 0 0,-1.35923 0.96102625,0.9610267 0 0 0 -1.3592271,0 l -1.3592272,1.35923 -1.3592272,-1.35923 a 0.96102625,0.9610267 0 0 0 -0.6932836,-0.28122 z"
         style="opacity:1;fill:#e40001;fill-opacity:1;stroke:none;stroke-width:1.21001148;stroke-linecap:butt;stroke-linejoin:miter;stroke-miterlimit:4;stroke-dasharray:none;stroke-opacity:1" />
    </clipPath>
    <linearGradient
       inkscape:collect="always"
       xlink:href="#linearGradient4796"
       id="linearGradient4811"
       gradientUnits="userSpaceOnUse"
       gradientTransform="translate(20)"
       x1="27"
       y1="306.29584"
       x2="27"
       y2="294.29584" />
    <mask
       maskUnits="userSpaceOnUse"
       id="mask4807">
      <path
         inkscape:connector-curvature="0"
         id="path4809"
         d="m 47,294.29583 c -3.313709,0 -6,2.68629 -6,6 0,3.31371 2.686291,6 6,6 3.313708,0 6,-2.68629 6,-6 0,-3.31371 -2.686292,-6 -6,-6 z"
         style="opacity:0.75;fill:url(#linearGradient4811);fill-opacity:1;stroke:none;stroke-width:1.80360913;stroke-linecap:butt;stroke-linejoin:miter;stroke-miterlimit:4;stroke-dasharray:none;stroke-opacity:1"
         sodipodi:nodetypes="sssss" />
    </mask>
    <mask
       maskUnits="userSpaceOnUse"
       id="mask4857">
      <path
         style="opacity:1;fill:#cd8900;fill-opacity:1;stroke:none;stroke-width:1.25908267;stroke-linecap:butt;stroke-linejoin:miter;stroke-miterlimit:4;stroke-dasharray:none;stroke-opacity:1"
         d="m 30,309.29583 a 1,1 0 0 0 -1,1 1,1 0 0 0 1,1 h 6 a 1,1 0 0 0 1,-1 1,1 0 0 0 -1,-1 z"
         id="path4859"
         inkscape:connector-curvature="0" />
    </mask>
    <clipPath
       clipPathUnits="userSpaceOnUse"
       id="clipPath4883">
      <path
         style="opacity:1;fill:#cd8900;fill-opacity:1;stroke:none;stroke-width:1.25908267;stroke-linecap:butt;stroke-linejoin:miter;stroke-miterlimit:4;stroke-dasharray:none;stroke-opacity:1"
         d="m 34,319.29583 a 1,1 0 0 0 -1,1 1,1 0 0 0 1,1 h 6 a 1,1 0 0 0 1,-1 1,1 0 0 0 -1,-1 z"
         id="path4885"
         inkscape:connector-curvature="0" />
    </clipPath>
    <clipPath
       clipPathUnits="userSpaceOnUse"
       id="clipPath4899">
      <path
         style="opacity:1;fill:#e40001;fill-opacity:1;stroke:none;stroke-width:1.21001148;stroke-linecap:butt;stroke-linejoin:miter;stroke-miterlimit:4;stroke-dasharray:none;stroke-opacity:1"
         d="m 44.947163,297.29648 a 0.96102625,0.9610267 0 0 0 -0.665944,0.28122 0.96102625,0.9610267 0 0 0 0,1.35923 l 1.359228,1.35923 -1.359228,1.35923 a 0.96102625,0.9610267 0 0 0 0,1.35922 0.96102625,0.9610267 0 0 0 1.359228,0 l 1.359227,-1.35922 1.359227,1.35922 a 0.96102625,0.9610267 0 0 0 1.359227,0 0.96102625,0.9610267 0 0 0 0,-1.35922 l -1.359227,-1.35923 1.359227,-1.35923 a 0.96102625,0.9610267 0 0 0 0,-1.35923 0.96102625,0.9610267 0 0 0 -1.359227,0 l -1.359227,1.35923 -1.359228,-1.35923 a 0.96102625,0.9610267 0 0 0 -0.693283,-0.28122 z"
         id="path4901"
         inkscape:connector-curvature="0" />
    </clipPath>
    <radialGradient
       inkscape:collect="always"
       xlink:href="#linearGradient4751"
       id="radialGradient5187"
       gradientUnits="userSpaceOnUse"
       gradientTransform="matrix(1.2000001,-9.0000178e-8,6.0000004e-8,0.79999854,18.599981,58.649133)"
       cx="7"
       cy="305.80893"
       fx="7"
       fy="305.80893"
       r="5" />
    <linearGradient
       inkscape:collect="always"
       xlink:href="#linearGradient4533"
       id="linearGradient5189"
       gradientUnits="userSpaceOnUse"
       gradientTransform="translate(40,294.29583)"
       x1="7.000001"
       y1="13"
       x2="7.000001"
       y2="7" />
    <radialGradient
       inkscape:collect="always"
       xlink:href="#linearGradient4530"
       id="radialGradient5191"
       gradientUnits="userSpaceOnUse"
       gradientTransform="matrix(1.6000004,0,0,0.799997,-58.200003,-541.74207)"
       cx="7.0000005"
       cy="306.80893"
       fx="7.0000005"
       fy="306.80893"
       r="5" />
    <radialGradient
       inkscape:collect="always"
       xlink:href="#linearGradient4579"
       id="radialGradient5193"
       gradientUnits="userSpaceOnUse"
       gradientTransform="matrix(0.99999998,-6.0140203e-8,6.0140282e-8,1.0000012,40,293.15296)"
       cx="7"
       cy="7.642858"
       fx="7"
       fy="7.642858"
       r="6" />
    <clipPath
       clipPathUnits="userSpaceOnUse"
       id="clipPath5308">
      <path
         id="path5310"
         d="m 47,276.29583 a 1,1 0 0 0 -1,1 v 2 h -2 a 1,1 0 0 0 -1,1 1,1 0 0 0 1,1 h 2 v 2 a 1,1 0 0 0 1,1 1,1 0 0 0 1,-1 v -2 h 2 a 1,1 0 0 0 1,-1 1,1 0 0 0 -1,-1 h -2 v -2 a 1,1 0 0 0 -1,-1 z"
         clip-path="none"
         style="opacity:1;fill:#2da802;fill-opacity:1;stroke:none;stroke-width:1.25908267;stroke-linecap:butt;stroke-linejoin:miter;stroke-miterlimit:4;stroke-dasharray:none;stroke-opacity:1"
         inkscape:connector-curvature="0" />
    </clipPath>
  </defs>
  <sodipodi:namedview
     id="base"
     pagecolor="#ffffff"
     bordercolor="#666666"
     borderopacity="1.0"
     inkscape:pageopacity="0.0"
     inkscape:pageshadow="2"
     inkscape:zoom="4"
     inkscape:cx="24.9539"
     inkscape:cy="11.151324"
     inkscape:document-units="px"
     inkscape:current-layer="layer1"
     showgrid="false"
     units="px"
     inkscape:pagecheckerboard="true"
     showguides="true"
     inkscape:guide-bbox="true"
     inkscape:object-paths="true"
     inkscape:snap-intersection-paths="true"
     inkscape:snap-smooth-nodes="true"
     inkscape:snap-midpoints="true"
     inkscape:snap-page="true"
     inkscape:window-width="1366"
     inkscape:window-height="709"
     inkscape:window-x="0"
     inkscape:window-y="27"
     inkscape:window-maximized="1"
     inkscape:snap-text-baseline="false" />
  <metadata
     id="metadata5">
    <rdf:RDF>
      <cc:Work
         rdf:about="">
        <dc:format>image/svg+xml</dc:format>
        <dc:type
           rdf:resource="http://purl.org/dc/dcmitype/StillImage" />
        <dc:title></dc:title>
      </cc:Work>
    </rdf:RDF>
  </metadata>
  <g
     inkscape:label="Layer 1"
     inkscape:groupmode="layer"
     id="layer1"
     transform="translate(0,-293.29583)">
    <path
       cx="7"
       cy="300.29584"
       r="6"
       id="path3682"
       style="opacity:0.5;fill:#000000;fill-opacity:1;stroke:none;stroke-width:1.80360913;stroke-linecap:butt;stroke-linejoin:miter;stroke-miterlimit:4;stroke-dasharray:none;stroke-opacity:1" />
    <g
       id="g5263"
       transform="translate(-20)">
      <g
         id="g5228">
        <circle
           cx="27"
           cy="300.29584"
           r="6"
           id="circle4707"
           style="opacity:1;fill:#f4a83c;fill-opacity:1;stroke:none;stroke-width:1.80360913;stroke-linecap:butt;stroke-linejoin:miter;stroke-miterlimit:4;stroke-dasharray:none;stroke-opacity:1" />
        <circle
           r="6"
           cy="300.29584"
           cx="27"
           id="circle5175"
           style="opacity:1;fill:url(#radialGradient5187);fill-opacity:1;stroke:none;stroke-width:2.45156503;stroke-linecap:butt;stroke-linejoin:miter;stroke-miterlimit:4;stroke-dasharray:none;stroke-opacity:1" />
      </g>
      <g
         id="g5185"
         transform="translate(-20)">
        <path
           sodipodi:nodetypes="sssss"
           style="opacity:0.4;fill:url(#linearGradient5189);fill-opacity:1;stroke:none;stroke-width:1.80360913;stroke-linecap:butt;stroke-linejoin:miter;stroke-miterlimit:4;stroke-dasharray:none;stroke-opacity:1"
           d="m 47,295.29583 c -3.313709,0 -6,2.68629 -6,6 0,3.31371 2.686291,6 6,6 3.313708,0 6,-2.68629 6,-6 0,-3.31371 -2.686292,-6 -6,-6 z"
           id="path5179"
           inkscape:connector-curvature="0" />
        <circle
           transform="scale(-1)"
           style="opacity:1;fill:url(#radialGradient5191);fill-opacity:1;stroke:none;stroke-width:2.45156503;stroke-linecap:butt;stroke-linejoin:miter;stroke-miterlimit:4;stroke-dasharray:none;stroke-opacity:1"
           id="circle5181"
           cx="-47"
           cy="-300.29584"
           r="6" />
        <path
           id="path5183"
           d="m 47,294.29583 c -3.313708,0 -6,2.68629 -6,6 0,3.31371 2.686292,6 6,6 3.313708,0 6,-2.68629 6,-6 0,-3.31371 -2.686292,-6 -6,-6 z m 0,2 c 2.623352,0 4.75,2.01472 4.75,4.5 0,2.48528 -2.126648,4.5 -4.75,4.5 -2.623353,0 -4.75,-2.01472 -4.75,-4.5 0,-2.48528 2.126647,-4.5 4.75,-4.5 z"
           style="opacity:0.65;fill:url(#radialGradient5193);fill-opacity:1;stroke:none;stroke-width:1.80360913;stroke-linecap:butt;stroke-linejoin:miter;stroke-miterlimit:4;stroke-dasharray:none;stroke-opacity:1"
           inkscape:connector-curvature="0" />
      </g>
    </g>
    <g
       id="g4891"
       transform="translate(-20,-20)">
      <path
         style="opacity:1;fill:#cd8900;fill-opacity:1;stroke:none;stroke-width:1.25908267;stroke-linecap:butt;stroke-linejoin:miter;stroke-miterlimit:4;stroke-dasharray:none;stroke-opacity:1"
         d="m 24,319.29583 a 1,1 0 0 0 -1,1 1,1 0 0 0 1,1 h 6 a 1,1 0 0 0 1,-1 1,1 0 0 0 -1,-1 z"
         id="path4745"
         inkscape:connector-curvature="0" />
      <g
         transform="translate(-10)"
         clip-path="url(#clipPath4883)"
         id="g4877">
        <path
           style="opacity:0.3;fill:none;fill-opacity:1;stroke:#000000;stroke-width:2;stroke-linecap:butt;stroke-linejoin:miter;stroke-miterlimit:4;stroke-dasharray:none;stroke-opacity:0.95336788"
           d="m 34,319.29583 a 1,1 0 0 0 -1,1 1,1 0 0 0 1,1 h 6 a 1,1 0 0 0 1,-1 1,1 0 0 0 -1,-1 z"
           id="path4841"
           inkscape:connector-curvature="0" />
        <path
           inkscape:connector-curvature="0"
           id="path4849"
           d="m 34,319.79583 a 1,1 0 0 0 -1,1 1,1 0 0 0 1,1 h 6 a 1,1 0 0 0 1,-1 1,1 0 0 0 -1,-1 z"
           style="opacity:0.5;fill:none;fill-opacity:1;stroke:#000000;stroke-width:1;stroke-linecap:butt;stroke-linejoin:miter;stroke-miterlimit:4;stroke-dasharray:none;stroke-opacity:0.95336788" />
      </g>
    </g>
    <path
       inkscape:connector-curvature="0"
       id="path4539"
       d="m 7,294.29583 c -3.3137085,0 -6,2.68629 -6,6 0,3.31371 2.6862915,6 6,6 3.313708,0 6,-2.68629 6,-6 0,-3.31371 -2.686292,-6 -6,-6 z"
       style="opacity:0.4;fill:#000000;fill-opacity:0.97927462;stroke:none;stroke-width:1.80360913;stroke-linecap:butt;stroke-linejoin:miter;stroke-miterlimit:4;stroke-dasharray:none;stroke-opacity:1"
       sodipodi:nodetypes="sssss" />
  </g>
</svg>
